<svg width="1024" height="1024" viewBox="0 0 1024 1024" xmlns="http://www.w3.org/2000/svg">
  <!-- Bakgrunnsfarge #1581C5 (Brand Blue) -->
  <rect width="1024" height="1024" fill="#1581C5"/>
  
  <g fill="white">
    <!-- Øverste linje: "Ki." -->
    <!-- K -->
    <path d="M250 150H350V330L470 150H580L440 350L600 580H485L350 390V580H250V150Z" />
    <!-- i -->
    <path d="M630 310H720V580H630V310Z" />
    <!-- Prikk over i -->
    <circle cx="675" cy="215" r="50" />
    <!-- Punktum etter Ki -->
    <circle cx="810" cy="530" r="50" />
    
    <!-- Nederste linje: "NO" -->
    <!-- N -->
    <path d="M250 650H360L540 930V650H650V1000H540L350 730V1000H250V650Z" />
    <!-- O -->
    <path d="M680 825C680 920 720 1000 815 1000C910 1000 950 920 950 825C950 730 910 650 815 650C720 650 680 730 680 825ZM845 825C845 870 835 915 815 915C795 915 785 870 785 825C785 780 795 735 815 735C835 735 845 780 845 825Z" />
  </g>
</svg>